<svg height="1982" width="720" xmlns="http://www.w3.org/2000/svg">
<rect height="1982" fill="#555" width="720"></rect>
<text fill="#7f7" font-family="Courier New" font-size="12" xml:space="preserve">
<tspan x="10" y="26">5 megabytes installed</tspan>
<tspan x="10" y="42"></tspan>
<tspan x="10" y="58">node_modules</tspan>
<tspan x="10" y="74">└─┬ gulp-angular-templatecache@2.0.0 </tspan>
<tspan x="10" y="90">  ├─┬ event-stream@3.3.2 </tspan>
<tspan x="10" y="106">  │ ├── duplexer@0.1.1 </tspan>
<tspan x="10" y="122">  │ ├── from@0.1.7 </tspan>
<tspan x="10" y="138">  │ ├── map-stream@0.1.0 </tspan>
<tspan x="10" y="154">  │ ├── pause-stream@0.0.11 </tspan>
<tspan x="10" y="170">  │ ├── split@0.3.3 </tspan>
<tspan x="10" y="186">  │ ├── stream-combiner@0.0.4 </tspan>
<tspan x="10" y="202">  │ └── through@2.3.8 </tspan>
<tspan x="10" y="218">  ├─┬ gulp-concat@2.6.0 </tspan>
<tspan x="10" y="234">  │ ├─┬ concat-with-sourcemaps@1.0.4 </tspan>
<tspan x="10" y="250">  │ │ └── source-map@0.5.6 </tspan>
<tspan x="10" y="266">  │ └─┬ through2@0.6.5 </tspan>
<tspan x="10" y="282">  │   ├─┬ readable-stream@1.0.34 </tspan>
<tspan x="10" y="298">  │   │ ├── core-util-is@1.0.2 </tspan>
<tspan x="10" y="314">  │   │ ├── inherits@2.0.3 </tspan>
<tspan x="10" y="330">  │   │ ├── isarray@0.0.1 </tspan>
<tspan x="10" y="346">  │   │ └── string_decoder@0.10.31 </tspan>
<tspan x="10" y="362">  │   └── xtend@4.0.1 </tspan>
<tspan x="10" y="378">  ├─┬ gulp-footer@1.0.5 </tspan>
<tspan x="10" y="394">  │ └── lodash.assign@4.2.0 </tspan>
<tspan x="10" y="410">  ├─┬ gulp-header@1.8.2 </tspan>
<tspan x="10" y="426">  │ ├── object-assign@3.0.0 </tspan>
<tspan x="10" y="442">  │ └─┬ through2@2.0.3 </tspan>
<tspan x="10" y="458">  │   └─┬ readable-stream@2.2.9 </tspan>
<tspan x="10" y="474">  │     ├── buffer-shims@1.0.0 </tspan>
<tspan x="10" y="490">  │     ├── isarray@1.0.0 </tspan>
<tspan x="10" y="506">  │     ├── process-nextick-args@1.0.7 </tspan>
<tspan x="10" y="522">  │     ├── string_decoder@1.0.0 </tspan>
<tspan x="10" y="538">  │     └── util-deprecate@1.0.2 </tspan>
<tspan x="10" y="554">  ├─┬ gulp-util@3.0.7 </tspan>
<tspan x="10" y="570">  │ ├── array-differ@1.0.0 </tspan>
<tspan x="10" y="586">  │ ├── array-uniq@1.0.3 </tspan>
<tspan x="10" y="602">  │ ├── beeper@1.1.1 </tspan>
<tspan x="10" y="618">  │ ├─┬ chalk@1.1.3 </tspan>
<tspan x="10" y="634">  │ │ ├── ansi-styles@2.2.1 </tspan>
<tspan x="10" y="650">  │ │ ├── escape-string-regexp@1.0.5 </tspan>
<tspan x="10" y="666">  │ │ ├─┬ has-ansi@2.0.0 </tspan>
<tspan x="10" y="682">  │ │ │ └── ansi-regex@2.1.1 </tspan>
<tspan x="10" y="698">  │ │ ├── strip-ansi@3.0.1 </tspan>
<tspan x="10" y="714">  │ │ └── supports-color@2.0.0 </tspan>
<tspan x="10" y="730">  │ ├─┬ dateformat@1.0.12 </tspan>
<tspan x="10" y="746">  │ │ ├── get-stdin@4.0.1 </tspan>
<tspan x="10" y="762">  │ │ └─┬ meow@3.7.0 </tspan>
<tspan x="10" y="778">  │ │   ├─┬ camelcase-keys@2.1.0 </tspan>
<tspan x="10" y="794">  │ │   │ └── camelcase@2.1.1 </tspan>
<tspan x="10" y="810">  │ │   ├── decamelize@1.2.0 </tspan>
<tspan x="10" y="826">  │ │   ├─┬ loud-rejection@1.6.0 </tspan>
<tspan x="10" y="842">  │ │   │ ├─┬ currently-unhandled@0.4.1 </tspan>
<tspan x="10" y="858">  │ │   │ │ └── array-find-index@1.0.2 </tspan>
<tspan x="10" y="874">  │ │   │ └── signal-exit@3.0.2 </tspan>
<tspan x="10" y="890">  │ │   ├── map-obj@1.0.1 </tspan>
<tspan x="10" y="906">  │ │   ├─┬ normalize-package-data@2.3.6 </tspan>
<tspan x="10" y="922">  │ │   │ ├── hosted-git-info@2.4.2 </tspan>
<tspan x="10" y="938">  │ │   │ ├─┬ is-builtin-module@1.0.0 </tspan>
<tspan x="10" y="954">  │ │   │ │ └── builtin-modules@1.1.1 </tspan>
<tspan x="10" y="970">  │ │   │ ├── semver@5.3.0 </tspan>
<tspan x="10" y="986">  │ │   │ └─┬ validate-npm-package-license@3.0.1 </tspan>
<tspan x="10" y="1002">  │ │   │   ├─┬ spdx-correct@1.0.2 </tspan>
<tspan x="10" y="1018">  │ │   │   │ └── spdx-license-ids@1.2.2 </tspan>
<tspan x="10" y="1034">  │ │   │   └── spdx-expression-parse@1.0.4 </tspan>
<tspan x="10" y="1050">  │ │   ├── object-assign@4.1.1 </tspan>
<tspan x="10" y="1066">  │ │   ├─┬ read-pkg-up@1.0.1 </tspan>
<tspan x="10" y="1082">  │ │   │ ├─┬ find-up@1.1.2 </tspan>
<tspan x="10" y="1098">  │ │   │ │ ├── path-exists@2.1.0 </tspan>
<tspan x="10" y="1114">  │ │   │ │ └─┬ pinkie-promise@2.0.1 </tspan>
<tspan x="10" y="1130">  │ │   │ │   └── pinkie@2.0.4 </tspan>
<tspan x="10" y="1146">  │ │   │ └─┬ read-pkg@1.1.0 </tspan>
<tspan x="10" y="1162">  │ │   │   ├─┬ load-json-file@1.1.0 </tspan>
<tspan x="10" y="1178">  │ │   │   │ ├── graceful-fs@4.1.11 </tspan>
<tspan x="10" y="1194">  │ │   │   │ ├─┬ parse-json@2.2.0 </tspan>
<tspan x="10" y="1210">  │ │   │   │ │ └─┬ error-ex@1.3.1 </tspan>
<tspan x="10" y="1226">  │ │   │   │ │   └── is-arrayish@0.2.1 </tspan>
<tspan x="10" y="1242">  │ │   │   │ ├── pify@2.3.0 </tspan>
<tspan x="10" y="1258">  │ │   │   │ └─┬ strip-bom@2.0.0 </tspan>
<tspan x="10" y="1274">  │ │   │   │   └── is-utf8@0.2.1 </tspan>
<tspan x="10" y="1290">  │ │   │   └── path-type@1.1.0 </tspan>
<tspan x="10" y="1306">  │ │   ├─┬ redent@1.0.0 </tspan>
<tspan x="10" y="1322">  │ │   │ ├─┬ indent-string@2.1.0 </tspan>
<tspan x="10" y="1338">  │ │   │ │ └─┬ repeating@2.0.1 </tspan>
<tspan x="10" y="1354">  │ │   │ │   └─┬ is-finite@1.0.2 </tspan>
<tspan x="10" y="1370">  │ │   │ │     └── number-is-nan@1.0.1 </tspan>
<tspan x="10" y="1386">  │ │   │ └── strip-indent@1.0.1 </tspan>
<tspan x="10" y="1402">  │ │   └── trim-newlines@1.0.0 </tspan>
<tspan x="10" y="1418">  │ ├─┬ fancy-log@1.3.0 </tspan>
<tspan x="10" y="1434">  │ │ └── time-stamp@1.0.1 </tspan>
<tspan x="10" y="1450">  │ ├─┬ gulplog@1.0.0 </tspan>
<tspan x="10" y="1466">  │ │ └── glogg@1.0.0 </tspan>
<tspan x="10" y="1482">  │ ├─┬ has-gulplog@0.1.0 </tspan>
<tspan x="10" y="1498">  │ │ └── sparkles@1.0.0 </tspan>
<tspan x="10" y="1514">  │ ├── lodash._reescape@3.0.0 </tspan>
<tspan x="10" y="1530">  │ ├── lodash._reevaluate@3.0.0 </tspan>
<tspan x="10" y="1546">  │ ├── lodash._reinterpolate@3.0.0 </tspan>
<tspan x="10" y="1562">  │ ├─┬ lodash.template@3.6.2 </tspan>
<tspan x="10" y="1578">  │ │ ├── lodash._basecopy@3.0.1 </tspan>
<tspan x="10" y="1594">  │ │ ├── lodash._basetostring@3.0.1 </tspan>
<tspan x="10" y="1610">  │ │ ├── lodash._basevalues@3.0.0 </tspan>
<tspan x="10" y="1626">  │ │ ├── lodash._isiterateecall@3.0.9 </tspan>
<tspan x="10" y="1642">  │ │ ├─┬ lodash.escape@3.2.0 </tspan>
<tspan x="10" y="1658">  │ │ │ └── lodash._root@3.0.1 </tspan>
<tspan x="10" y="1674">  │ │ ├─┬ lodash.keys@3.1.2 </tspan>
<tspan x="10" y="1690">  │ │ │ ├── lodash._getnative@3.9.1 </tspan>
<tspan x="10" y="1706">  │ │ │ ├── lodash.isarguments@3.1.0 </tspan>
<tspan x="10" y="1722">  │ │ │ └── lodash.isarray@3.0.4 </tspan>
<tspan x="10" y="1738">  │ │ ├── lodash.restparam@3.6.1 </tspan>
<tspan x="10" y="1754">  │ │ └── lodash.templatesettings@3.1.1 </tspan>
<tspan x="10" y="1770">  │ ├── minimist@1.2.0 </tspan>
<tspan x="10" y="1786">  │ ├─┬ multipipe@0.1.2 </tspan>
<tspan x="10" y="1802">  │ │ └─┬ duplexer2@0.0.2 </tspan>
<tspan x="10" y="1818">  │ │   └── readable-stream@1.1.14 </tspan>
<tspan x="10" y="1834">  │ ├── replace-ext@0.0.1 </tspan>
<tspan x="10" y="1850">  │ ├─┬ through2@2.0.3 </tspan>
<tspan x="10" y="1866">  │ │ └─┬ readable-stream@2.2.9 </tspan>
<tspan x="10" y="1882">  │ │   ├── isarray@1.0.0 </tspan>
<tspan x="10" y="1898">  │ │   └── string_decoder@1.0.0 </tspan>
<tspan x="10" y="1914">  │ └─┬ vinyl@0.5.3 </tspan>
<tspan x="10" y="1930">  │   ├── clone@1.0.2 </tspan>
<tspan x="10" y="1946">  │   └── clone-stats@0.0.1 </tspan>
<tspan x="10" y="1962">  └── jsesc@2.2.0</tspan>
</text>
</svg>
